<svg width="19" height="16" viewBox="0 0 19 16" fill="none" xmlns="http://www.w3.org/2000/svg">
<path d="M17.2529 0.361328H1.66248C0.746935 0.361328 0 1.14313 0 2.10332V13.7166C0 14.6735 0.74361 15.4586 1.66248 15.4586H17.2529C18.1661 15.4586 18.9154 14.6794 18.9154 13.7166V2.10332C18.9154 1.14639 18.1717 0.361328 17.2529 0.361328ZM17.0233 1.52266L9.49292 9.41322L1.89741 1.52266H17.0233ZM1.10832 13.4761V2.33826L6.44596 7.88321L1.10832 13.4761ZM1.89202 14.2973L7.23302 8.70083L9.10449 10.645C9.32113 10.87 9.67073 10.8693 9.88649 10.6432L11.7113 8.73114L17.0233 14.2973H1.89202ZM17.807 13.4761L12.495 7.90996L17.807 2.34379V13.4761Z" fill="#336466"/>
</svg>
