<svg width="21" height="21" viewBox="0 0 21 21" fill="none" xmlns="http://www.w3.org/2000/svg">
<path d="M17.6781 12.5181C17.2197 12.043 16.6669 11.789 16.0809 11.789C15.4997 11.789 14.9421 12.0383 14.4648 12.5134L12.9716 13.9953C12.8488 13.9294 12.7259 13.8683 12.6078 13.8071C12.4377 13.7224 12.277 13.6425 12.14 13.5578C10.7413 12.6734 9.47015 11.5208 8.251 10.0296C7.66034 9.28629 7.26341 8.66062 6.97516 8.02554C7.36264 7.67271 7.72177 7.30578 8.07144 6.95296C8.20375 6.82124 8.33606 6.68481 8.46837 6.55309C9.46069 5.56519 9.46069 4.28562 8.46837 3.29772L7.17835 2.01344C7.03186 1.86761 6.88065 1.71707 6.73889 1.56653C6.45537 1.27487 6.15767 0.97379 5.85053 0.691532C5.39217 0.239919 4.84403 8.39857e-08 4.26753 7.39905e-08C3.69104 6.39953e-08 3.13345 0.239919 2.66092 0.691532C2.65619 0.696237 2.65619 0.696237 2.65146 0.700941L1.04485 2.31452C0.44 2.91667 0.0950497 3.65054 0.019444 4.50202C-0.0939644 5.87567 0.312416 7.15524 0.624289 7.99261C1.3898 10.0484 2.53333 11.9536 4.23918 13.9953C6.30889 16.4556 8.79914 18.3985 11.6438 19.7675C12.7306 20.2802 14.1813 20.8871 15.8021 20.9906C15.9013 20.9953 16.0053 21 16.0998 21C17.1914 21 18.1081 20.6095 18.8263 19.8333C18.8311 19.8239 18.8405 19.8192 18.8452 19.8098C19.091 19.5134 19.3745 19.2453 19.6722 18.9583C19.8754 18.7655 20.0833 18.5632 20.2865 18.3515C20.7543 17.8669 21 17.3024 21 16.7238C21 16.1405 20.7496 15.5806 20.2723 15.1102L17.6781 12.5181ZM19.3698 17.4718C19.365 17.4718 19.365 17.4765 19.3698 17.4718C19.1855 17.6694 18.9965 17.8481 18.7933 18.0457C18.4861 18.3374 18.1742 18.6431 17.8813 18.9866C17.404 19.4946 16.8417 19.7345 16.1045 19.7345C16.0337 19.7345 15.9581 19.7345 15.8872 19.7298C14.4837 19.6405 13.1795 19.0948 12.2014 18.629C9.52685 17.3401 7.17835 15.5101 5.22678 13.1909C3.61544 11.2574 2.53806 9.46976 1.82453 7.5504C1.38507 6.37903 1.22441 5.4664 1.29529 4.60551C1.34254 4.05511 1.55518 3.59879 1.94739 3.20833L3.55873 1.60417C3.79027 1.38777 4.03599 1.27016 4.27699 1.27016C4.57468 1.27016 4.81567 1.44892 4.96689 1.59946C4.97161 1.60417 4.97634 1.60887 4.98106 1.61358C5.26931 1.88172 5.54338 2.15927 5.83162 2.45565C5.97811 2.60618 6.12932 2.75672 6.28053 2.91196L7.57055 4.19624C8.07144 4.69489 8.07144 5.15591 7.57055 5.65457C7.43352 5.79099 7.30121 5.92742 7.16417 6.05914C6.76724 6.46371 6.38922 6.84005 5.97811 7.20699C5.96866 7.2164 5.95921 7.2211 5.95448 7.23051C5.5481 7.63508 5.62371 8.03024 5.70877 8.29839C5.71349 8.3125 5.71822 8.32661 5.72294 8.34073C6.05844 9.14987 6.53098 9.91196 7.24923 10.8199L7.25396 10.8246C8.55815 12.4241 9.93323 13.6707 11.4501 14.6257C11.6438 14.748 11.8423 14.8468 12.0313 14.9409C12.2014 15.0255 12.3621 15.1055 12.4991 15.1902C12.518 15.1996 12.5369 15.2137 12.5558 15.2231C12.7165 15.3031 12.8677 15.3407 13.0236 15.3407C13.4158 15.3407 13.6615 15.0961 13.7419 15.0161L15.3579 13.4073C15.5186 13.2473 15.7738 13.0544 16.0715 13.0544C16.3644 13.0544 16.6054 13.2379 16.7519 13.3978C16.7566 13.4026 16.7566 13.4026 16.7614 13.4073L19.365 15.9993C19.8517 16.4792 19.8517 16.9731 19.3698 17.4718Z" fill="#336466"/>
</svg>
